<svg width="31" height="24" viewBox="0 0 31 24" fill="none" xmlns="http://www.w3.org/2000/svg">
<path d="M5.75366 4.1304C5.385 3.94835 4.9391 3.95746 4.57962 4.15434C4.22013 4.35124 4 4.70694 4 5.09091V18.9091C4 19.5116 4.53263 20 5.18966 20C5.84668 20 6.37931 19.5116 6.37931 18.9091V6.91732L14.9359 11.1423C15.2881 11.3162 15.7119 11.3162 16.0641 11.1423L24.6207 6.91732V18.9091C24.6207 19.5116 25.1533 20 25.8103 20C26.4674 20 27 19.5116 27 18.9091V5.09091C27 4.70694 26.7798 4.35124 26.4204 4.15434C26.061 3.95746 25.6151 3.94835 25.2463 4.1304L15.5 8.94287L5.75366 4.1304Z" fill="#2A2A2B" fill-opacity="0.5"/>
<path fill-rule="evenodd" clip-rule="evenodd" d="M23.4297 0.33391C18.1538 -0.111303 12.8463 -0.111303 7.57033 0.33391L5.30464 0.525104C2.87432 0.730193 0.910679 2.48249 0.557705 4.76115C-0.185902 9.56159 -0.185902 14.4385 0.557705 19.2388C0.910679 21.5175 2.87432 23.2697 5.30464 23.4749L7.57033 23.666C12.8463 24.1113 18.1538 24.1113 23.4297 23.666L25.6953 23.4749C28.1258 23.2697 30.0893 21.5175 30.4423 19.2388C31.1859 14.4385 31.1859 9.56159 30.4423 4.76115C30.0893 2.48249 28.1258 0.730193 25.6953 0.525104L23.4297 0.33391ZM7.76979 2.4394C12.913 2.00539 18.0869 2.00539 23.2302 2.4394L25.496 2.63059C26.8937 2.74855 28.023 3.75638 28.2261 5.06694C28.9384 9.66447 28.9384 14.3355 28.2261 18.933C28.023 20.2436 26.8937 21.2514 25.496 21.3693L23.2302 21.5606C18.0869 21.9946 12.913 21.9946 7.76979 21.5606L5.50412 21.3693C4.10632 21.2514 2.97693 20.2436 2.77392 18.933C2.06173 14.3355 2.06173 9.66447 2.77392 5.06694C2.97693 3.75638 4.10632 2.74855 5.50412 2.63059L7.76979 2.4394Z" fill="#2A2A2B" fill-opacity="0.5"/>
</svg>
