<svg width="66" height="50" viewBox="0 0 66 50" fill="none" xmlns="http://www.w3.org/2000/svg">
<path d="M12.6598 8.2771C11.8904 7.89024 10.9599 7.90959 10.2096 8.32798C9.45941 8.74639 9 9.50224 9 10.3182V39.6818C9 40.9621 10.1116 42 11.4828 42C12.8539 42 13.9655 40.9621 13.9655 39.6818V14.1993L31.8228 23.1773C32.5577 23.547 33.4423 23.547 34.1772 23.1773L52.0345 14.1993V39.6818C52.0345 40.9621 53.1461 42 54.5172 42C55.8884 42 57 40.9621 57 39.6818V10.3182C57 9.50224 56.5405 8.74639 55.7904 8.32798C55.0403 7.90959 54.1097 7.89024 53.3401 8.2771L33 18.5036L12.6598 8.2771Z" fill="#90733A"/>
<path fill-rule="evenodd" clip-rule="evenodd" d="M49.8826 0.695645C38.6501 -0.231882 27.3502 -0.231882 16.1175 0.695645L11.2938 1.09397C6.11952 1.52124 1.93886 5.17186 1.18737 9.91906C-0.39579 19.92 -0.39579 30.0801 1.18737 40.0809C1.93886 44.828 6.11952 48.4786 11.2938 48.9061L16.1175 49.3042C27.3502 50.2319 38.6501 50.2319 49.8826 49.3042L54.7061 48.9061C59.8807 48.4786 64.0611 44.828 64.8126 40.0809C66.3958 30.0801 66.3958 19.92 64.8126 9.91906C64.0611 5.17186 59.8807 1.52124 54.7061 1.09397L49.8826 0.695645ZM16.5421 5.08208C27.4923 4.17789 38.5077 4.17789 49.4579 5.08208L54.2817 5.4804C57.2576 5.72614 59.6619 7.82578 60.0943 10.5561C61.6107 20.1343 61.6107 29.8655 60.0943 39.4438C59.6619 42.1742 57.2576 44.2737 54.2817 44.5195L49.4579 44.9179C38.5077 45.8221 27.4923 45.8221 16.5421 44.9179L11.7184 44.5195C8.74249 44.2737 6.33799 42.1742 5.90577 39.4438C4.38949 29.8655 4.38949 20.1343 5.90577 10.5561C6.33799 7.82578 8.74249 5.72614 11.7184 5.4804L16.5421 5.08208Z" fill="#90733A"/>
</svg>
