<?xml version="1.0" encoding="utf-8"?><svg viewBox="0 0 502.66 502.66" xmlns="http://www.w3.org/2000/svg" xmlns:xlink="http://www.w3.org/1999/xlink"><style>:root>svg{display:none}:root>svg:target{display:block}</style><svg viewBox="0 0 31 24" id="email" xmlns="http://www.w3.org/2000/svg"><path d="M5.754 4.13a1.284 1.284 0 0 0-1.174.024c-.36.197-.58.553-.58.937v13.818C4 19.512 4.533 20 5.19 20c.657 0 1.19-.488 1.19-1.09V6.916l8.556 4.225c.352.174.776.174 1.128 0l8.557-4.225V18.91c0 .603.532 1.091 1.19 1.091.656 0 1.189-.488 1.189-1.09V5.09c0-.383-.22-.739-.58-.936a1.284 1.284 0 0 0-1.174-.024L15.5 8.943 5.754 4.13Z" fill-opacity=".5"/><path fill-rule="evenodd" clip-rule="evenodd" d="M23.43.334a94.324 94.324 0 0 0-15.86 0L5.305.525C2.875.73.91 2.482.558 4.761a47.258 47.258 0 0 0 0 14.478c.353 2.278 2.316 4.03 4.747 4.236l2.265.191a94.306 94.306 0 0 0 15.86 0l2.265-.191c2.43-.205 4.394-1.958 4.747-4.236.744-4.8.744-9.677 0-14.478-.353-2.279-2.316-4.03-4.747-4.236L23.43.334ZM7.77 2.439a91.952 91.952 0 0 1 15.46 0l2.266.192c1.398.118 2.527 1.125 2.73 2.436a45.255 45.255 0 0 1 0 13.866c-.203 1.31-1.332 2.318-2.73 2.436l-2.266.192a91.954 91.954 0 0 1-15.46 0l-2.266-.192c-1.398-.118-2.527-1.125-2.73-2.436a45.262 45.262 0 0 1 0-13.866c.203-1.31 1.332-2.318 2.73-2.436l2.266-.192Z" fill-opacity=".5"/></svg><svg viewBox="0 0 29 29" id="geo" xmlns="http://www.w3.org/2000/svg"><g clip-path="url(#ba)"><path d="M14.5 29s10.875-10.306 10.875-18.125a10.875 10.875 0 0 0-21.75 0C3.625 18.695 14.5 29 14.5 29Zm0-12.688a5.438 5.438 0 1 1 0-10.875 5.438 5.438 0 0 1 0 10.875Z"/></g><defs><clipPath id="ba"><path d="M0 0h29v29H0z"/></clipPath></defs></svg><svg viewBox="0 0 502.664 502.664" xml:space="preserve" id="icon" xmlns="http://www.w3.org/2000/svg"><path d="M153.821 358.226 0 274.337v-46.463l153.821-83.414v54.574L46.636 250.523l107.185 53.431v54.272zm26.273 29.358L282.103 115.08h32.227L212.084 387.584h-31.99zm168.749-29.358v-54.272l107.164-52.999-107.164-52.59v-53.927l153.821 83.522v46.183l-153.821 84.083z"/></svg><svg viewBox="0 0 18 19" id="icon-audio" xmlns="http://www.w3.org/2000/svg"><path d="M16.138 6.38a3.544 3.544 0 0 1 0 6.24L5.586 18.512C3.103 19.899 0 18.166 0 15.392V3.607C0 .835 3.103-.898 5.586.487l10.552 5.894Z"/></svg><svg viewBox="0 0 27 27" id="people" xmlns="http://www.w3.org/2000/svg"><path d="M19.684 26.97a7.286 7.286 0 1 0 0-14.571 7.286 7.286 0 0 0 0 14.572ZM5.987 23.076a3.392 3.392 0 1 0 0-6.783 3.392 3.392 0 0 0 0 6.783Zm13.697-12.398a4.69 4.69 0 1 0 0-9.38 4.69 4.69 0 0 0 0 9.38ZM5.988 11.976A5.988 5.988 0 1 0 5.988 0a5.988 5.988 0 0 0 0 11.976Z" fill-opacity=".5"/></svg><svg viewBox="0 0 27 24" id="telegram" xmlns="http://www.w3.org/2000/svg"><path d="m10.336 15.477-.412 6.555c.606 0 .874-.294 1.213-.643l2.914-3.003 6.063 4.747c1.116.652 1.92.315 2.199-1.098l3.98-19.877C26.7.427 25.67-.358 24.603.155L1.232 9.705c-1.595.679-1.586 1.622-.29 2.042l5.997 1.984 13.884-9.283c.656-.422 1.257-.195.764.27l-11.251 10.76Z"/></svg><svg viewBox="0 0 30 29" id="whatsapp" xmlns="http://www.w3.org/2000/svg"><g clip-path="url(#ga)"><path fill-rule="evenodd" clip-rule="evenodd" d="M23.732 20.476c-.362.989-1.799 1.807-2.945 2.046-.784.161-1.807.289-5.254-1.092-3.872-1.55-9.248-7.074-9.248-10.749 0-1.871 1.116-4.05 3.067-4.05.94 0 1.146.018 1.455.734.362.845 1.244 2.924 1.349 3.138.433.874-.441 1.386-1.075 2.148-.203.229-.432.477-.176.903.255.418 1.137 1.807 2.433 2.923 1.674 1.442 3.031 1.902 3.518 2.098.361.145.793.11 1.057-.162.334-.35.75-.93 1.173-1.5.299-.41.678-.46 1.076-.316.268.09 3.68 1.622 3.825 1.867.106.178.106 1.022-.255 2.012ZM15.003 0h-.008C6.726 0 0 6.504 0 14.5a14.07 14.07 0 0 0 2.856 8.498L.987 28.386l5.765-1.78A15.252 15.252 0 0 0 15.003 29C23.273 29 30 22.496 30 14.5S23.273 0 15.003 0Z" fill-opacity=".5"/></g><defs><clipPath id="ga"><path d="M0 0h30v29H0z"/></clipPath></defs></svg></svg>