<?xml version="1.0" encoding="utf-8"?><svg viewBox="0 0 502.66 502.66" xmlns="http://www.w3.org/2000/svg" xmlns:xlink="http://www.w3.org/1999/xlink"><style>:root>svg{display:none}:root>svg:target{display:block}</style><svg viewBox="0 0 31 24" id="email" xmlns="http://www.w3.org/2000/svg"><path d="M5.754 4.13a1.284 1.284 0 0 0-1.174.024c-.36.197-.58.553-.58.937v13.818C4 19.512 4.533 20 5.19 20c.657 0 1.19-.488 1.19-1.09V6.916l8.556 4.225c.352.174.776.174 1.128 0l8.557-4.225V18.91c0 .603.532 1.091 1.19 1.091.656 0 1.189-.488 1.189-1.09V5.09c0-.383-.22-.739-.58-.936a1.284 1.284 0 0 0-1.174-.024L15.5 8.943 5.754 4.13Z" fill-opacity=".5"/><path fill-rule="evenodd" clip-rule="evenodd" d="M23.43.334a94.324 94.324 0 0 0-15.86 0L5.305.525C2.875.73.91 2.482.558 4.761a47.258 47.258 0 0 0 0 14.478c.353 2.278 2.316 4.03 4.747 4.236l2.265.191a94.306 94.306 0 0 0 15.86 0l2.265-.191c2.43-.205 4.394-1.958 4.747-4.236.744-4.8.744-9.677 0-14.478-.353-2.279-2.316-4.03-4.747-4.236L23.43.334ZM7.77 2.439a91.952 91.952 0 0 1 15.46 0l2.266.192c1.398.118 2.527 1.125 2.73 2.436a45.255 45.255 0 0 1 0 13.866c-.203 1.31-1.332 2.318-2.73 2.436l-2.266.192a91.954 91.954 0 0 1-15.46 0l-2.266-.192c-1.398-.118-2.527-1.125-2.73-2.436a45.262 45.262 0 0 1 0-13.866c.203-1.31 1.332-2.318 2.73-2.436l2.266-.192Z" fill-opacity=".5"/></svg><svg viewBox="0 0 66 50" id="email-contacts" xmlns="http://www.w3.org/2000/svg"><path d="M12.66 8.277a2.637 2.637 0 0 0-2.45.051C9.46 8.746 9 9.502 9 10.318v29.364C9 40.962 10.112 42 11.483 42c1.37 0 2.482-1.038 2.482-2.318V14.199l17.858 8.978c.735.37 1.62.37 2.354 0L52.035 14.2v25.483c0 1.28 1.111 2.318 2.482 2.318C55.888 42 57 40.962 57 39.682V10.318c0-.816-.46-1.572-1.21-1.99a2.637 2.637 0 0 0-2.45-.05L33 18.503 12.66 8.277Z"/><path fill-rule="evenodd" clip-rule="evenodd" d="M49.883.696a205.208 205.208 0 0 0-33.766 0l-4.823.398C6.12 1.521 1.939 5.172 1.187 9.919a96.366 96.366 0 0 0 0 30.162c.752 4.747 4.933 8.398 10.107 8.825l4.823.398a205.17 205.17 0 0 0 33.766 0l4.823-.398c5.175-.427 9.355-4.078 10.107-8.825a96.364 96.364 0 0 0 0-30.162c-.752-4.747-4.932-8.398-10.107-8.825L49.883.696Zm-33.34 4.386a200.048 200.048 0 0 1 32.915 0l4.824.398c2.976.246 5.38 2.346 5.812 5.076a92.288 92.288 0 0 1 0 28.888c-.432 2.73-2.836 4.83-5.812 5.075l-4.824.399c-10.95.904-21.966.904-32.916 0l-4.824-.398c-2.976-.246-5.38-2.346-5.812-5.076a92.295 92.295 0 0 1 0-28.888c.432-2.73 2.836-4.83 5.812-5.076l4.824-.398Z"/></svg><svg viewBox="0 0 29 29" id="geo" xmlns="http://www.w3.org/2000/svg"><g clip-path="url(#ca)"><path d="M14.5 29s10.875-10.306 10.875-18.125a10.875 10.875 0 0 0-21.75 0C3.625 18.695 14.5 29 14.5 29Zm0-12.688a5.438 5.438 0 1 1 0-10.875 5.438 5.438 0 0 1 0 10.875Z"/></g><defs><clipPath id="ca"><path d="M0 0h29v29H0z"/></clipPath></defs></svg><svg viewBox="0 0 29 29" id="geo2" xmlns="http://www.w3.org/2000/svg"><path d="M14.5 29s10.875-10.306 10.875-18.125a10.875 10.875 0 0 0-21.75 0C3.625 18.695 14.5 29 14.5 29Zm0-12.688a5.438 5.438 0 1 1 0-10.875 5.438 5.438 0 0 1 0 10.875Z"/></svg><svg viewBox="0 0 502.664 502.664" xml:space="preserve" id="icon" xmlns="http://www.w3.org/2000/svg"><path d="M153.821 358.226 0 274.337v-46.463l153.821-83.414v54.574L46.636 250.523l107.185 53.431v54.272zm26.273 29.358L282.103 115.08h32.227L212.084 387.584h-31.99zm168.749-29.358v-54.272l107.164-52.999-107.164-52.59v-53.927l153.821 83.522v46.183l-153.821 84.083z"/></svg><svg viewBox="0 0 18 19" id="icon-audio" xmlns="http://www.w3.org/2000/svg"><path d="M16.138 6.38a3.544 3.544 0 0 1 0 6.24L5.586 18.512C3.103 19.899 0 18.166 0 15.392V3.607C0 .835 3.103-.898 5.586.487l10.552 5.894Z"/></svg><svg viewBox="0 0 27 27" id="people" xmlns="http://www.w3.org/2000/svg"><path d="M19.684 26.97a7.286 7.286 0 1 0 0-14.571 7.286 7.286 0 0 0 0 14.572ZM5.987 23.076a3.392 3.392 0 1 0 0-6.783 3.392 3.392 0 0 0 0 6.783Zm13.697-12.398a4.69 4.69 0 1 0 0-9.38 4.69 4.69 0 0 0 0 9.38ZM5.988 11.976A5.988 5.988 0 1 0 5.988 0a5.988 5.988 0 0 0 0 11.976Z" fill-opacity=".5"/></svg><svg viewBox="0 0 18 19" id="play" xmlns="http://www.w3.org/2000/svg"><path d="M16.138 6.38a3.544 3.544 0 0 1 0 6.24L5.586 18.512C3.103 19.899 0 18.166 0 15.392V3.607C0 .835 3.103-.898 5.586.487l10.552 5.894Z"/></svg><svg viewBox="0 0 27 24" id="telegram" xmlns="http://www.w3.org/2000/svg"><path d="m10.336 15.477-.412 6.555c.606 0 .874-.294 1.213-.643l2.914-3.003 6.063 4.747c1.116.652 1.92.315 2.199-1.098l3.98-19.877C26.7.427 25.67-.358 24.603.155L1.232 9.705c-1.595.679-1.586 1.622-.29 2.042l5.997 1.984 13.884-9.283c.656-.422 1.257-.195.764.27l-11.251 10.76Z"/></svg><svg viewBox="0 0 67 41" id="vk" xmlns="http://www.w3.org/2000/svg"><path d="M65.484 2.819c-.754 2.437-1.77 4.558-3.044 6.484l.053-.086a346.669 346.669 0 0 1-4.48 7.428c-1.49 2.218-2.278 3.366-2.366 3.445a3.724 3.724 0 0 0-.745 1.773l-.003.02c.075.609.349 1.14.748 1.536l1.117 1.28c5.975 6.313 9.336 10.665 10.082 13.055.098.264.154.568.154.887 0 .556-.173 1.07-.466 1.492l.005-.009a2.659 2.659 0 0 1-2.189.83h.011-7.36a3.882 3.882 0 0 1-2.485-.901l.009.006a19.618 19.618 0 0 1-2.656-2.722l-.025-.034a83.962 83.962 0 0 0-3.423-3.774c-3.317-3.242-5.765-4.863-7.343-4.863a2.158 2.158 0 0 0-1.44.387l.008-.005a2.24 2.24 0 0 0-.447 1.676v-.011a37.012 37.012 0 0 0-.106 4.027v-.049 3.327a2.263 2.263 0 0 1-.743 2.173l-.003.002a8.671 8.671 0 0 1-3.674.807 9.02 9.02 0 0 1-.84-.04l.036.003a22.784 22.784 0 0 1-11.937-3.64l.098.057a33.724 33.724 0 0 1-10.378-10.118l-.076-.12c-2.53-3.45-4.889-7.348-6.9-11.458l-.195-.442C3.306 12.939 2.09 10.108 1.04 7.199l-.17-.531a19.544 19.544 0 0 1-.865-4.406L0 2.19C0 .74.83.014 2.49.014h7.344a2.905 2.905 0 0 1 2.063.646l-.005-.006a5.221 5.221 0 0 1 1.175 2.262l.009.035c1.35 3.923 2.783 7.219 4.43 10.376l-.186-.393c1.345 2.784 2.834 5.18 4.531 7.394l-.064-.09c1.49 1.88 2.65 2.82 3.485 2.82a1.114 1.114 0 0 0 1.058-.571l.003-.006a5.245 5.245 0 0 0 .31-2.26v.018V9.105a9.423 9.423 0 0 0-.894-3.637l.022.055a8.515 8.515 0 0 0-1.256-1.995l.008.011a3.187 3.187 0 0 1-.868-1.777l-.003-.017c0-.488.218-.927.559-1.214l.002-.003c.338-.318.79-.51 1.285-.51h11.598a1.751 1.751 0 0 1 1.56.637l.004.002a3.993 3.993 0 0 1 .444 2.19v-.014 14.848a2.923 2.923 0 0 0 .38 1.677l-.006-.012c.204.31.544.511.93.511h.002c.492-.034.939-.2 1.316-.465l-.009.006a9.997 9.997 0 0 0 1.98-1.84l.011-.014a44.742 44.742 0 0 0 4.621-6.459l.109-.2c.96-1.637 2-3.652 2.94-5.721l.173-.422 1.245-2.56C53.23.901 54.391 0 55.756 0c.053 0 .106 0 .16.003h-.01 7.347c1.984 0 2.729.938 2.234 2.816h-.003Z"/></svg><svg viewBox="0 0 30 29" id="whatsapp" xmlns="http://www.w3.org/2000/svg"><g clip-path="url(#la)"><path fill-rule="evenodd" clip-rule="evenodd" d="M23.732 20.476c-.362.989-1.799 1.807-2.945 2.046-.784.161-1.807.289-5.254-1.092-3.872-1.55-9.248-7.074-9.248-10.749 0-1.871 1.116-4.05 3.067-4.05.94 0 1.146.018 1.455.734.362.845 1.244 2.924 1.349 3.138.433.874-.441 1.386-1.075 2.148-.203.229-.432.477-.176.903.255.418 1.137 1.807 2.433 2.923 1.674 1.442 3.031 1.902 3.518 2.098.361.145.793.11 1.057-.162.334-.35.75-.93 1.173-1.5.299-.41.678-.46 1.076-.316.268.09 3.68 1.622 3.825 1.867.106.178.106 1.022-.255 2.012ZM15.003 0h-.008C6.726 0 0 6.504 0 14.5a14.07 14.07 0 0 0 2.856 8.498L.987 28.386l5.765-1.78A15.252 15.252 0 0 0 15.003 29C23.273 29 30 22.496 30 14.5S23.273 0 15.003 0Z" fill-opacity=".5"/></g><defs><clipPath id="la"><path d="M0 0h30v29H0z"/></clipPath></defs></svg><svg viewBox="0 0 65 63" id="whatsapp-contacts" xmlns="http://www.w3.org/2000/svg"><g clip-path="url(#ka)"><path fill-rule="evenodd" clip-rule="evenodd" d="M51.418 44.481c-.783 2.15-3.896 3.927-6.38 4.447-1.7.35-3.916.627-11.384-2.373-8.389-3.369-20.037-15.367-20.037-23.351 0-4.065 2.418-8.798 6.647-8.798 2.034 0 2.483.038 3.152 1.595.784 1.834 2.694 6.352 2.922 6.815.94 1.9-.956 3.012-2.33 4.667-.439.497-.936 1.036-.38 1.962.552.908 2.463 3.926 5.271 6.35 3.627 3.131 6.568 4.131 7.621 4.557.783.315 1.72.241 2.291-.351.725-.76 1.626-2.02 2.542-3.26.647-.89 1.469-1 2.33-.685.582.195 7.976 3.523 8.288 4.056.23.387.23 2.22-.553 4.37ZM32.507 0h-.017C14.573 0 0 14.129 0 31.5c0 6.888 2.291 13.278 6.188 18.462l-4.05 11.704 12.49-3.868C19.767 61.094 25.9 63 32.507 63 50.424 63 65 48.871 65 31.5 65 14.129 50.424 0 32.507 0Z"/></g><defs><clipPath id="ka"><path d="M0 0h65v63H0z"/></clipPath></defs></svg><svg viewBox="0 0 75 75" id="youtube" xmlns="http://www.w3.org/2000/svg"><g clip-path="url(#ma)"><path d="M73.594 20.156c-.469-3.75-3.75-7.031-7.735-7.265-22.968-1.641-34.218-1.641-56.953 0-3.75.234-7.031 3.515-7.5 7.265-1.875 13.828-1.875 20.86 0 34.688.469 3.75 3.985 7.031 7.735 7.265 11.25.703 19.921 1.172 28.359 1.172 8.438 0 17.11-.468 28.594-1.172 3.75-.234 7.031-3.515 7.734-7.265 1.64-13.828 1.64-20.86-.234-34.688Zm-24.14 21.328L35.39 50.86c-.703.47-1.641.703-2.578.703-.704 0-1.641-.234-2.11-.468-1.64-.938-2.578-2.344-2.578-4.219v-18.75c0-1.875.938-3.281 2.578-4.219 1.64-.937 3.281-.703 4.922.235l14.063 9.375c1.406.937 2.109 2.343 2.109 3.984 0 1.64-.938 3.047-2.344 3.984Z"/></g><defs><clipPath id="ma"><path d="M0 0h75v75H0z"/></clipPath></defs></svg></svg>