<svg width="27" height="27" viewBox="0 0 27 27" fill="none" xmlns="http://www.w3.org/2000/svg">
<path d="M19.6836 26.9708C23.7077 26.9708 26.9698 23.7087 26.9698 19.6846C26.9698 15.6606 23.7077 12.3984 19.6836 12.3984C15.6596 12.3984 12.3975 15.6606 12.3975 19.6846C12.3975 23.7087 15.6596 26.9708 19.6836 26.9708Z" fill="#2A2A2B" fill-opacity="0.5"/>
<path d="M5.98727 23.0761C7.86038 23.0761 9.37883 21.5576 9.37883 19.6845C9.37883 17.8114 7.86038 16.293 5.98727 16.293C4.11416 16.293 2.5957 17.8114 2.5957 19.6845C2.5957 21.5576 4.11416 23.0761 5.98727 23.0761Z" fill="#2A2A2B" fill-opacity="0.5"/>
<path d="M19.6839 10.6784C22.274 10.6784 24.3737 8.57869 24.3737 5.9886C24.3737 3.39851 22.274 1.29883 19.6839 1.29883C17.0938 1.29883 14.9941 3.39851 14.9941 5.9886C14.9941 8.57869 17.0938 10.6784 19.6839 10.6784Z" fill="#2A2A2B" fill-opacity="0.5"/>
<path d="M5.98798 11.976C9.29505 11.976 11.976 9.29504 11.976 5.98798C11.976 2.68091 9.29505 0 5.98798 0C2.68091 0 0 2.68091 0 5.98798C0 9.29504 2.68091 11.976 5.98798 11.976Z" fill="#2A2A2B" fill-opacity="0.5"/>
</svg>
