<svg width="67" height="41" viewBox="0 0 67 41" fill="none" xmlns="http://www.w3.org/2000/svg">
<path d="M65.4839 2.81868C64.73 5.2556 63.7137 7.37679 62.4404 9.30279L62.4935 9.21667C61.2426 11.3599 59.7488 13.836 58.0121 16.6451C56.523 18.8629 55.7347 20.0111 55.6472 20.0895C55.2619 20.5861 54.9938 21.1946 54.9017 21.8634L54.8989 21.8835C54.9743 22.492 55.2479 23.023 55.6472 23.4191L56.764 24.6993C62.7392 31.0122 66.1 35.3636 66.8464 37.7536C66.9442 38.0177 67 38.322 67 38.6406C67 39.1974 66.8269 39.7112 66.5337 40.1332L66.5393 40.1245C66.0479 40.6441 65.361 40.9656 64.6016 40.9656C64.5178 40.9656 64.4312 40.9627 64.3503 40.9541H64.3614H57.0153C57.0125 40.9541 57.007 40.9541 57.0014 40.9541C56.0604 40.9541 55.1949 40.6154 54.5164 40.0528L54.5247 40.0585C53.5363 39.2233 52.6568 38.3191 51.8694 37.3374L51.8443 37.303C50.5581 35.8085 49.417 34.5503 48.4212 33.5285C45.1041 30.2869 42.6563 28.6661 41.0778 28.6661C41.0192 28.6604 40.9522 28.6575 40.8824 28.6575C40.4217 28.6575 39.9917 28.8039 39.6371 29.0536L39.6455 29.0479C39.3551 29.421 39.1792 29.9032 39.1792 30.4228C39.1792 30.5261 39.1848 30.6237 39.1987 30.7242V30.7127C39.1234 31.614 39.0787 32.6616 39.0787 33.7208C39.0787 34.0624 39.0843 34.4011 39.0926 34.7398V34.691V38.0177C39.1206 38.1526 39.1373 38.3076 39.1373 38.4655C39.1373 39.1601 38.8302 39.7801 38.3499 40.1906L38.3471 40.1934C37.2666 40.7015 36.0045 41 34.6727 41C34.3879 41 34.1087 40.9856 33.8323 40.9598L33.8686 40.9627C29.4737 40.8766 25.3972 39.5533 21.9322 37.3231L22.0299 37.3805C17.811 34.7455 14.3153 31.3155 11.6516 27.2625L11.5762 27.142C9.04651 23.6918 6.68716 19.7939 4.67682 15.6836L4.48137 15.2415C3.30588 12.9395 2.08851 10.1094 1.03867 7.19882L0.871145 6.66781C0.443949 5.35893 0.134022 3.83765 0.00558426 2.26183L0 2.19007C0 0.739592 0.830194 0.0143521 2.49058 0.0143521H9.83389C9.9009 0.00861136 9.97908 0.00574027 10.0601 0.00574027C10.7525 0.00574027 11.3919 0.24972 11.8973 0.660179L11.8917 0.654439C12.4501 1.28304 12.8634 2.05517 13.0672 2.91627L13.0756 2.95071C14.4269 6.87447 15.8593 10.1696 17.5067 13.327L17.3196 12.9338C18.6654 15.718 20.1536 18.1147 21.8512 20.3278L21.787 20.2388C23.2761 22.1179 24.4377 23.0575 25.2716 23.0575C25.2967 23.0603 25.3274 23.0603 25.3609 23.0603C25.7742 23.0603 26.1344 22.8307 26.3298 22.4863L26.3326 22.4805C26.5392 21.9352 26.6593 21.3008 26.6593 20.6406C26.6593 20.5 26.6537 20.3594 26.6425 20.2216V20.2388V9.10473C26.5839 7.79298 26.2712 6.56735 25.749 5.46801L25.7714 5.52254C25.4252 4.76477 25.0091 4.11033 24.5149 3.52765L24.5233 3.53913C24.0654 3.0684 23.7527 2.45127 23.6549 1.76239L23.6521 1.74517C23.6521 1.25721 23.8699 0.818048 24.2106 0.531014L24.2134 0.528143C24.5512 0.209535 25.0035 0.0172222 25.4977 0.0172222H25.5201H37.0963C37.1577 0.00861115 37.2275 0.00574027 37.3001 0.00574027C37.8446 0.00574027 38.3332 0.258331 38.6571 0.654439L38.6599 0.657309C38.9474 1.19693 39.1178 1.84276 39.1178 2.5259C39.1178 2.63498 39.1122 2.74118 39.1038 2.84738V2.83303V17.6813C39.0982 17.7502 39.0954 17.8306 39.0954 17.9109C39.0954 18.4391 39.2378 18.9357 39.4835 19.3576L39.478 19.3461C39.6818 19.6561 40.0224 19.857 40.4077 19.857H40.4105C40.9019 19.8226 41.3487 19.6561 41.7256 19.392L41.7172 19.3978C42.4767 18.861 43.1301 18.2496 43.6969 17.5579L43.708 17.5435C45.4029 15.5745 46.9664 13.3988 48.329 11.0853L48.4379 10.8843C49.3984 9.24825 50.4371 7.23327 51.378 5.16375L51.5511 4.74181L52.7964 2.18146C53.2292 0.901287 54.3907 0 55.7561 0C55.8091 0 55.8622 -2.08177e-07 55.9152 0.00287014H55.9069H63.253C65.2372 0.00287014 65.9818 0.941473 65.4867 2.81868H65.4839Z" fill="#90733A"/>
</svg>
