<svg width="65" height="63" viewBox="0 0 65 63" fill="none" xmlns="http://www.w3.org/2000/svg">
<g clip-path="url(#clip0_27_2198)">
<path fill-rule="evenodd" clip-rule="evenodd" d="M51.4183 44.4814C50.635 46.6304 47.5215 48.4081 45.0385 48.9281C43.3388 49.2778 41.1222 49.5545 33.6537 46.5548C25.2655 43.1864 13.6175 31.1881 13.6175 23.2036C13.6175 19.1388 16.0355 14.4057 20.2638 14.4057C22.2983 14.4057 22.7468 14.4442 23.4163 16.0007C24.1995 17.8346 26.1105 22.3528 26.338 22.816C27.2773 24.716 25.3825 25.8283 24.0077 27.4825C23.569 27.9803 23.0718 28.5188 23.6275 29.4451C24.18 30.3526 26.091 33.3713 28.899 35.7943C32.526 38.9264 35.4672 39.9263 36.5202 40.3517C37.3035 40.6668 38.2395 40.5934 38.8115 40.001C39.5363 39.2416 40.4365 37.9817 41.353 36.7403C41.9997 35.8517 42.822 35.7407 43.6833 36.0558C44.265 36.2512 51.6587 39.5792 51.9707 40.1117C52.2015 40.4993 52.2015 42.3325 51.4183 44.4814ZM32.5065 0H32.4902C14.573 0 0 14.1289 0 31.5C0 38.388 2.29127 44.7783 6.18802 49.9616L2.13852 61.6665L14.6283 57.7982C19.7665 61.0941 25.8992 63 32.5065 63C50.4237 63 65 48.8711 65 31.5C65 14.1289 50.4237 0 32.5065 0Z" fill="#90733A"/>
</g>
<defs>
<clipPath id="clip0_27_2198">
<rect width="65" height="63" fill="white"/>
</clipPath>
</defs>
</svg>
