<svg width="29" height="29" viewBox="0 0 29 29" fill="none" xmlns="http://www.w3.org/2000/svg">
<g clip-path="url(#clip0_6_1128)">
<path d="M14.5 29C14.5 29 25.375 18.6941 25.375 10.875C25.375 7.99077 24.2292 5.22467 22.1898 3.18521C20.1503 1.14576 17.3842 0 14.5 0C11.6158 0 8.84967 1.14576 6.81021 3.18521C4.77076 5.22467 3.625 7.99077 3.625 10.875C3.625 18.6941 14.5 29 14.5 29ZM14.5 16.3125C13.0579 16.3125 11.6748 15.7396 10.6551 14.7199C9.63538 13.7002 9.0625 12.3171 9.0625 10.875C9.0625 9.43289 9.63538 8.04984 10.6551 7.03011C11.6748 6.01038 13.0579 5.4375 14.5 5.4375C15.9421 5.4375 17.3252 6.01038 18.3449 7.03011C19.3646 8.04984 19.9375 9.43289 19.9375 10.875C19.9375 12.3171 19.3646 13.7002 18.3449 14.7199C17.3252 15.7396 15.9421 16.3125 14.5 16.3125Z" fill="#E89C2E"/>
</g>
<defs>
<clipPath id="clip0_6_1128">
<rect width="29" height="29" fill="white"/>
</clipPath>
</defs>
</svg>
