<svg width="30" height="29" viewBox="0 0 30 29" fill="none" xmlns="http://www.w3.org/2000/svg">
<g clip-path="url(#clip0_1_993)">
<path fill-rule="evenodd" clip-rule="evenodd" d="M23.7315 20.4756C23.37 21.4648 21.933 22.2831 20.787 22.5224C20.0025 22.6834 18.9795 22.8108 15.5325 21.43C11.661 19.8795 6.285 14.3564 6.285 10.681C6.285 8.80994 7.401 6.6312 9.3525 6.6312C10.2915 6.6312 10.4985 6.6489 10.8075 7.36541C11.169 8.20957 12.051 10.2894 12.156 10.5026C12.5895 11.3772 11.715 11.8892 11.0805 12.6507C10.878 12.8798 10.6485 13.1277 10.905 13.5541C11.16 13.9718 12.042 15.3614 13.338 16.4768C15.012 17.9185 16.3695 18.3788 16.8555 18.5746C17.217 18.7196 17.649 18.6858 17.913 18.4132C18.2475 18.0636 18.663 17.4837 19.086 16.9122C19.3845 16.5032 19.764 16.4521 20.1615 16.5971C20.43 16.687 23.8425 18.219 23.9865 18.4641C24.093 18.6425 24.093 19.4864 23.7315 20.4756ZM15.003 0H14.9955C6.72599 0 0 6.50376 0 14.5C0 17.6707 1.05751 20.6122 2.85601 22.9982L0.987007 28.3862L6.75151 26.6055C9.12301 28.1227 11.9535 29 15.003 29C23.2725 29 30 22.4962 30 14.5C30 6.50376 23.2725 0 15.003 0Z" fill="#2A2A2B" fill-opacity="0.5"/>
</g>
<defs>
<clipPath id="clip0_1_993">
<rect width="30" height="29" fill="white"/>
</clipPath>
</defs>
</svg>
