<svg width="75" height="75" viewBox="0 0 75 75" fill="none" xmlns="http://www.w3.org/2000/svg">
<g clip-path="url(#clip0_850_15)">
<path d="M73.5938 20.1563C73.125 16.4063 69.8438 13.125 65.8594 12.8906C42.8906 11.25 31.6406 11.25 8.90625 12.8906C5.15625 13.125 1.875 16.4063 1.40625 20.1563C-0.46875 33.9844 -0.46875 41.0156 1.40625 54.8438C1.875 58.5938 5.39063 61.875 9.14063 62.1094C20.3906 62.8125 29.0625 63.2812 37.5 63.2812C45.9375 63.2812 54.6094 62.8125 66.0938 62.1094C69.8438 61.875 73.125 58.5938 73.8281 54.8438C75.4688 41.0156 75.4688 33.9844 73.5938 20.1563ZM49.4531 41.4844L35.3906 50.8594C34.6875 51.3281 33.75 51.5625 32.8125 51.5625C32.1094 51.5625 31.1719 51.3281 30.7031 51.0937C29.0625 50.1562 28.125 48.75 28.125 46.875V28.125C28.125 26.25 29.0625 24.8438 30.7031 23.9062C32.3438 22.9688 33.9844 23.2031 35.625 24.1406L49.6875 33.5156C51.0938 34.4531 51.7969 35.8594 51.7969 37.5C51.7969 39.1406 50.8594 40.5469 49.4531 41.4844Z" fill="#90733A"/>
</g>
<defs>
<clipPath id="clip0_850_15">
<rect width="75" height="75" fill="white"/>
</clipPath>
</defs>
</svg>
